<svg width="20" height="20" viewBox="0 0 20 20" fill="none" xmlns="http://www.w3.org/2000/svg">
<g clip-path="url(#clip0_10_34)">
<path d="M10 14.1667H10.0083" stroke="#94A3B8" stroke-width="2" stroke-linecap="round" stroke-linejoin="round"/>
<path d="M12.5 1.66675H4.99998C4.55795 1.66675 4.13403 1.84234 3.82147 2.1549C3.50891 2.46746 3.33331 2.89139 3.33331 3.33341V16.6667C3.33331 17.1088 3.50891 17.5327 3.82147 17.8453C4.13403 18.1578 4.55795 18.3334 4.99998 18.3334H15C15.442 18.3334 15.8659 18.1578 16.1785 17.8453C16.4911 17.5327 16.6666 17.1088 16.6666 16.6667V5.83341L12.5 1.66675Z" stroke="#94A3B8" stroke-width="2" stroke-linecap="round" stroke-linejoin="round"/>
<path d="M7.58331 7.50006C7.7833 6.94892 8.17062 6.48559 8.67759 6.19108C9.18455 5.89657 9.7789 5.78961 10.3567 5.88889C10.9346 5.98818 11.4591 6.28739 11.8387 6.73423C12.2183 7.18107 12.4288 7.74711 12.4333 8.33339C12.4333 10.0001 9.93331 10.8334 9.93331 10.8334" stroke="#94A3B8" stroke-width="2" stroke-linecap="round" stroke-linejoin="round"/>
</g>
<defs>
<clipPath id="clip0_10_34">
<rect width="20" height="20" fill="white"/>
</clipPath>
</defs>
</svg>
