<svg width="20" height="20" viewBox="0 0 20 20" fill="none" xmlns="http://www.w3.org/2000/svg">
<path d="M8.33335 12.5H5.00002C4.11597 12.5 3.26812 12.8512 2.643 13.4763C2.01788 14.1014 1.66669 14.9493 1.66669 15.8333V17.5" stroke="#94A3B8" stroke-width="2" stroke-linecap="round" stroke-linejoin="round"/>
<path d="M11.9208 13.7751L12.69 13.4568" stroke="#94A3B8" stroke-width="2" stroke-linecap="round" stroke-linejoin="round"/>
<path d="M12.69 11.5433L11.9208 11.2241" stroke="#94A3B8" stroke-width="2" stroke-linecap="round" stroke-linejoin="round"/>
<path d="M14.0433 10.1901L13.7242 9.4209" stroke="#94A3B8" stroke-width="2" stroke-linecap="round" stroke-linejoin="round"/>
<path d="M14.0433 14.8101L13.7242 15.5801" stroke="#94A3B8" stroke-width="2" stroke-linecap="round" stroke-linejoin="round"/>
<path d="M15.9567 10.1901L16.2758 9.4209" stroke="#94A3B8" stroke-width="2" stroke-linecap="round" stroke-linejoin="round"/>
<path d="M16.275 15.5801L15.9567 14.8101" stroke="#94A3B8" stroke-width="2" stroke-linecap="round" stroke-linejoin="round"/>
<path d="M17.31 11.5433L18.08 11.2241" stroke="#94A3B8" stroke-width="2" stroke-linecap="round" stroke-linejoin="round"/>
<path d="M17.31 13.4568L18.08 13.776" stroke="#94A3B8" stroke-width="2" stroke-linecap="round" stroke-linejoin="round"/>
<path d="M15 15C16.3807 15 17.5 13.8807 17.5 12.5C17.5 11.1193 16.3807 10 15 10C13.6193 10 12.5 11.1193 12.5 12.5C12.5 13.8807 13.6193 15 15 15Z" stroke="#94A3B8" stroke-width="2" stroke-linecap="round" stroke-linejoin="round"/>
<path d="M7.50002 9.16667C9.34097 9.16667 10.8334 7.67428 10.8334 5.83333C10.8334 3.99238 9.34097 2.5 7.50002 2.5C5.65907 2.5 4.16669 3.99238 4.16669 5.83333C4.16669 7.67428 5.65907 9.16667 7.50002 9.16667Z" stroke="#94A3B8" stroke-width="2" stroke-linecap="round" stroke-linejoin="round"/>
</svg>
